<svg width="25" height="25" viewBox="0 0 25 25" fill="none" xmlns="http://www.w3.org/2000/svg">
<path d="M10.7562 17.2796C10.6249 17.2798 10.4949 17.2542 10.3736 17.2041C10.2523 17.154 10.142 17.0804 10.0492 16.9876L5.80721 12.7446C5.71163 12.6524 5.63537 12.5421 5.58288 12.4201C5.53039 12.2982 5.50271 12.167 5.50146 12.0342C5.50022 11.9014 5.52543 11.7697 5.57562 11.6468C5.62581 11.5238 5.69999 11.4121 5.79381 11.3182C5.88764 11.2242 5.99924 11.1499 6.1221 11.0995C6.24495 11.0492 6.37662 11.0238 6.50939 11.0248C6.64217 11.0259 6.77341 11.0534 6.89545 11.1057C7.01749 11.158 7.12789 11.2341 7.22021 11.3296L10.7552 14.8646L17.1202 8.50156C17.3077 8.31392 17.5621 8.20845 17.8274 8.20836C18.0926 8.20827 18.3471 8.31355 18.5347 8.50106C18.7223 8.68857 18.8278 8.94294 18.8279 9.20821C18.828 9.47348 18.7227 9.72792 18.5352 9.91556L11.4632 16.9876C11.3704 17.0804 11.2601 17.154 11.1388 17.2041C11.0175 17.2542 10.8875 17.2798 10.7562 17.2796Z" fill="#2FAB73"/>
</svg>
